<?xml version="1.0" encoding="UTF-8"?>
<svg id="Layer_1" data-name="Layer 1" xmlns="http://www.w3.org/2000/svg" viewBox="0 0 1695.12 850.39">
  <defs>
    <style>
      .cls-1 {
        fill: none;
      }

      .cls-2 {
        fill: #f18500;
      }
    </style>
  </defs>
  <rect class="cls-1" width="1695.12" height="850.39"/>
  <path class="cls-2" d="M978.31,724.35c-25.53,0-46.99-9.13-62.03-26.41-13.42-15.41-20.81-38.88-20.81-66.07v-24.4c0-27.22,7.39-50.69,20.81-66.09,15.24-17.49,36.69-26.73,62.03-26.73s47.07,9.49,62.18,26.71c13.54,15.44,20.99,38.92,20.99,66.11v24.4c0,27.71-7.61,50.94-22,67.2-14.65,16.54-35.8,25.29-61.17,25.29h0ZM978.31,555.7c-13.13,0-23.1,4.25-29.65,12.64-6.73,8.63-10.14,21.79-10.14,39.12v24.4c0,17.29,3.41,30.39,10.13,38.93,6.53,8.29,16.51,12.49,29.66,12.49,11.27,0,24.43-3.09,32.34-16.38,5.12-8.59,7.83-20.36,7.8-35.04v-24.4c-.06-25.41-7.86-40.35-19.81-47.09-5.54-3.13-12.4-4.67-20.33-4.67h0Z"/>
  <path class="cls-2" d="M1330.28,724.39c-25.54,0-46.99-9.13-62.04-26.41-13.42-15.41-20.81-38.88-20.81-66.07v-24.4c0-27.22,7.39-50.69,20.81-66.09,15.24-17.49,36.69-26.73,62.03-26.73s47.07,9.49,62.18,26.71c13.54,15.44,20.99,38.92,20.99,66.11v24.4c0,27.71-7.61,50.94-22,67.2-14.65,16.54-35.8,25.29-61.17,25.29h0ZM1330.28,555.74c-13.13,0-23.1,4.25-29.65,12.65-6.73,8.62-10.14,21.79-10.14,39.12v24.4c0,17.29,3.41,30.39,10.13,38.93,6.53,8.29,16.51,12.49,29.66,12.49,11.26,0,24.43-3.1,32.34-16.38,5.12-8.59,7.83-20.36,7.8-35.04v-24.4c-.06-25.41-7.86-40.35-19.81-47.09-5.54-3.13-12.4-4.67-20.33-4.67h0Z"/>
  <path class="cls-2" d="M1244.75,518.5h-44.84l-45.44,164.63s0,0,0,0c0,0-45.43-164.63-45.43-164.63h-44.84l53.24,181.72c2.78,9.61,8.3,16.45,16.39,20.33,7.28,3.49,15.26,3.9,20.62,3.9h.03c5.37,0,13.34-.41,20.63-3.9,8.09-3.88,13.61-10.72,16.39-20.33l53.25-181.72Z"/>
  <path class="cls-2" d="M683.54,604.73c0-21.43-4.97-47.29-21.37-65.24-5.87-6.42-15.27-13.49-25.45-17.95-8.15-3.57-20.6-6.93-33.91-6.92-26.1,0-46.45,8.77-61.15,24.51-14.84,15.89-21.42,37.83-22.39,65.02v29.98c0,31.77,8.54,55.71,26.34,71.15,14.65,12.7,38.44,19.14,62.9,19.14,20.44,0,35.24-2.89,54.12-6.5l10.82-2.38v-39l-10.82,1.78c-14.38,2.32-34.15,5.74-54.12,5.74-14.55,0-28.87-3.31-35.09-10.58-6.36-7.42-11.27-17.54-11.5-35.16h100.54c.09,0,.18,0,.27-.01,11.53-.28,20.8-9.71,20.8-21.32h0c0-.06,0-.1,0-.15v-12.09ZM562.02,601.07c.54-12.05.31-21.46,5.34-29.31,1.54-2.67,3.71-5.31,6.41-7.66,3.45-3,7.23-5.05,10.81-6.09,4.75-1.7,10.64-2.31,18.22-2.31,14.87,0,24.55,5.28,29.43,10.94,8.5,9.87,8.8,20.65,9.39,34.43h-79.62Z"/>
  <path class="cls-2" d="M872.52,607.46c0-27.2-7.45-50.68-20.99-66.11-15.11-17.22-37.19-26.71-62.18-26.71s-46.79,9.24-62.03,26.73c-13.42,15.4-20.82,38.87-20.82,66.09v113.02h43.05v-113.02c0-17.33,3.42-30.49,10.15-39.12,6.55-8.39,16.52-12.5,29.65-12.64,13.11-.14,24,4.79,29.88,12.41,6.69,8.67,10.26,21.64,10.26,39.35v113.02s43.05,0,43.05,0c0,0-.02-113.02-.02-113.02Z"/>
  <path class="cls-2" d="M1531.26,608.13l-35.36-19.54c-16.06-9.18-20.25-15.51-20.25-20.64,0-6.87,2.93-13.61,25.34-13.46,21.46.15,54.22,5.86,54.22,5.86,4.32.74,7.47,1.48,9.73,1.85l.04-39.14c-.63-.15-4.24-.88-7.26-1.43-18.33-3.33-37.46-6.53-56.73-6.53-21.76,0-38.02,3.45-49.7,10.56-14.42,8.77-21.73,23-21.73,42.29,0,11.8,3.85,22.66,11.45,32.29,6.38,8.08,15.62,15.63,28.23,23.08l.03.02h.03s36.02,19.88,36.02,19.88c20.04,11.63,23.56,17.8,23.56,23.62,0,9.4-4.67,17.92-28.6,17.92-19.57,0-66.36-8.71-66.36-8.71v39.66s42.01,8.59,66.36,8.59c22.24,0,39.84-4.42,52.33-13.15,14.08-9.84,21.23-25.57,21.23-44.85,0-23.93-12.35-40.79-42.59-58.17Z"/>
  <g>
    <path class="cls-2" d="M358.84,259.86h-.02c-3.55,0-8.85-.28-13.85-2.67-5.78-2.77-9.7-7.6-11.65-14.34l-33.15-113.43h34.15s17.27,69.87,24.5,96.14l24.5-96.14h34.15l-33.15,113.43c-1.95,6.74-5.87,11.56-11.65,14.33-5,2.4-10.3,2.67-13.85,2.67h0Z"/>
    <path class="cls-2" d="M358.83,455.51h.02c3.55,0,8.85.28,13.85,2.67,5.78,2.77,9.7,7.6,11.65,14.34l33.15,113.43h-34.15s-17.27-69.87-24.5-96.14l-24.5,96.14h-34.15l33.15-113.43c1.95-6.74,5.87-11.56,11.65-14.33,5-2.4,10.3-2.67,13.85-2.67h0Z"/>
    <path class="cls-2" d="M456.69,357.7h0c0-3.57.28-8.86,2.67-13.86,2.77-5.78,7.6-9.7,14.34-11.65l113.43-33.15v34.15s-69.87,17.27-96.14,24.5l96.14,24.5v34.15l-113.43-33.15c-6.74-1.95-11.56-5.87-14.33-11.65-2.4-5-2.67-10.3-2.67-13.85h0Z"/>
    <path class="cls-2" d="M261.04,357.68h0c0,3.57-.28,8.87-2.67,13.86-2.77,5.78-7.6,9.7-14.34,11.65l-113.43,33.15v-34.15s69.87-17.27,96.14-24.5l-96.14-24.5v-34.15l113.43,33.15c6.74,1.95,11.56,5.87,14.33,11.65,2.4,5,2.67,10.3,2.67,13.85h0Z"/>
    <path class="cls-2" d="M428.02,426.86h0c2.51-2.52,6.45-6.07,11.68-7.91,6.04-2.12,12.23-1.48,18.38,1.9l103.64,56.77-24.15,24.15s-61.61-37.2-85.31-50.66l50.66,85.31-24.15,24.15-56.77-103.65c-3.38-6.14-4.02-12.32-1.9-18.37,1.84-5.23,5.39-9.17,7.9-11.68h0Z"/>
    <path class="cls-2" d="M289.68,288.51h-.01c-2.51,2.52-6.45,6.07-11.68,7.91-6.05,2.12-12.23,1.48-18.38-1.9l-103.64-56.77,24.15-24.15s61.61,37.19,85.31,50.66l-50.66-85.31,24.15-24.15,56.77,103.65c3.38,6.14,4.02,12.33,1.9,18.37-1.84,5.23-5.39,9.17-7.9,11.68h0Z"/>
    <path class="cls-2" d="M289.65,426.85h.01c2.51,2.52,6.06,6.46,7.9,11.7,2.12,6.04,1.48,12.23-1.9,18.38l-56.76,103.64-24.15-24.15s37.19-61.61,50.66-85.31l-85.31,50.66-24.15-24.15,103.65-56.77c6.14-3.39,12.32-4.02,18.37-1.9,5.23,1.84,9.17,5.39,11.68,7.9h0Z"/>
    <path class="cls-2" d="M428,288.52h-.01c-2.51-2.52-6.06-6.46-7.9-11.69-2.12-6.05-1.49-12.23,1.9-18.38l56.76-103.64,24.15,24.15s-37.19,61.61-50.66,85.31l85.31-50.66,24.15,24.15-103.65,56.77c-6.14,3.38-12.33,4.02-18.37,1.9-5.23-1.84-9.17-5.39-11.68-7.9h0Z"/>
  </g>
</svg>